<?xml version="1.0" encoding="UTF-8"?>
<svg id="_레이어_2" data-name="레이어 2" xmlns="http://www.w3.org/2000/svg" xmlns:xlink="http://www.w3.org/1999/xlink" viewBox="0 0 138.07 29.9">
  <defs>
    <style>
      .cls-1 {
        fill: none;
      }

      .cls-2 {
        fill: #00a7e1;
      }

      .cls-3 {
        fill: #919191;
      }

      .cls-4 {
        clip-path: url(#clippath);
      }
    </style>
    <clipPath id="clippath">
      <rect class="cls-1" width="138.07" height="29.9"/>
    </clipPath>
  </defs>
  <g id="_레이어_1-2" data-name="레이어 1">
    <g class="cls-4">
      <rect class="cls-3" x="52.41" y="5.8" width=".2" height="19.11"/>
      <polygon class="cls-2" points="4.83 10.68 9.31 10.68 9.31 23.45 12.3 23.45 12.3 10.68 16.82 10.68 16.82 8.26 4.83 8.26 4.83 10.68"/>
      <path class="cls-2" d="M24.94,17.3h2.78v3.66c-.41.18-1.19.29-2.11.29-3.33,0-5.4-2.07-5.4-5.4s2.17-5.36,5.66-5.36c1.77,0,2.82.34,3.55.64l.06.03.66-2.33-.05-.02c-.72-.33-2.25-.72-4.2-.72-5.27,0-8.81,3.17-8.81,7.89-.02,2.25.78,4.29,2.21,5.59,1.49,1.37,3.52,2.03,6.2,2.03,1.98,0,3.93-.44,5.08-.85h.04v-7.74h-5.67v2.29Z"/>
      <path class="cls-2" d="M38.97,14.57c-2.05-.77-2.97-1.3-2.97-2.43,0-.87.79-1.75,2.55-1.75,1.51,0,2.59.44,3.1.71l.06.03.74-2.33-.05-.02c-.71-.35-1.94-.77-3.8-.77-3.3,0-5.61,1.81-5.61,4.4,0,2.02,1.36,3.43,4.28,4.44,2.01.7,2.76,1.36,2.76,2.45,0,1.23-1.08,2-2.81,2-1.28,0-2.69-.36-3.77-.96l-.06-.04-.66,2.4.04.02c.83.47,2.56.95,4.27.95,4.45,0,6.03-2.47,6.03-4.58s-1.26-3.51-4.1-4.53Z"/>
      <path class="cls-3" d="M62.76,14.36c-.4,0-.76-.08-1.09-.22-.33-.15-.61-.35-.84-.61l.37-.43c.2.21.44.38.71.51s.55.19.85.19c.38,0,.68-.09.9-.26.22-.17.33-.4.33-.69,0-.21-.04-.37-.13-.5-.09-.12-.2-.22-.34-.3-.14-.08-.3-.16-.48-.24l-.81-.36c-.17-.07-.35-.17-.52-.28-.17-.12-.32-.27-.44-.45-.12-.19-.18-.41-.18-.68,0-.28.08-.54.23-.75.15-.22.35-.39.61-.51.26-.12.55-.19.88-.19s.64.06.92.19.51.29.7.5l-.34.4c-.16-.16-.35-.29-.56-.39-.21-.1-.45-.14-.72-.14-.33,0-.59.08-.79.23s-.3.36-.3.62c0,.19.05.34.14.46.1.12.22.22.36.29.14.07.29.14.42.21l.81.34c.21.09.41.2.58.33.18.13.31.28.42.47.1.19.15.42.15.7s-.08.55-.22.79c-.15.24-.37.43-.64.56-.28.14-.61.21-1,.21Z"/>
      <path class="cls-3" d="M67.33,14.36c-.37,0-.7-.08-.99-.26-.29-.17-.53-.42-.7-.74-.18-.32-.26-.71-.26-1.15,0-.34.05-.64.15-.91.1-.26.24-.49.41-.68s.37-.34.59-.43c.22-.1.45-.15.69-.15.34,0,.63.08.87.23.24.16.43.38.56.67.13.29.19.63.19,1.03,0,.07,0,.13,0,.19s-.01.12-.02.18h-2.81c.01.3.08.57.2.8.12.23.29.4.49.53.21.13.45.19.72.19.2,0,.39-.03.56-.09.17-.06.33-.14.49-.25l.22.43c-.17.11-.37.21-.58.29s-.47.12-.75.12ZM65.98,11.88h2.3c0-.44-.09-.77-.28-1-.19-.23-.45-.34-.78-.34-.2,0-.39.05-.57.16-.18.11-.32.26-.44.46s-.19.44-.22.72Z"/>
      <path class="cls-3" d="M69.86,14.26v-4.11h.51l.06.75h.02c.14-.26.31-.47.51-.62.2-.16.42-.24.65-.24.09,0,.17,0,.24.02.07.01.13.04.2.07l-.12.54c-.07-.02-.13-.04-.19-.05-.05-.01-.12-.02-.21-.02-.17,0-.36.07-.55.22-.19.15-.36.4-.5.75v2.68h-.62Z"/>
      <path class="cls-3" d="M73.86,14.26l-1.5-4.11h.65l.81,2.4c.07.2.13.4.2.6.07.2.13.4.19.6h.04c.07-.2.13-.4.19-.6s.13-.4.19-.6l.82-2.4h.61l-1.47,4.11h-.72Z"/>
      <path class="cls-3" d="M77.19,9.26c-.13,0-.23-.04-.31-.12s-.12-.18-.12-.32.04-.23.12-.3.18-.11.31-.11.22.04.3.11.12.18.12.3-.04.24-.12.32-.18.12-.3.12ZM76.87,14.26v-4.11h.62v4.11h-.62Z"/>
      <path class="cls-3" d="M80.52,14.36c-.36,0-.69-.08-.98-.26-.29-.17-.52-.42-.69-.74-.17-.32-.25-.71-.25-1.16s.09-.85.27-1.18c.18-.32.42-.57.72-.74.3-.17.62-.26.97-.26.27,0,.5.05.7.15.2.1.36.21.51.35l-.33.4c-.12-.11-.25-.2-.38-.27-.14-.07-.3-.1-.47-.1-.25,0-.48.07-.69.21s-.36.33-.48.58c-.12.25-.17.53-.17.86s.06.61.17.85c.11.24.27.43.46.57.2.14.43.21.69.21.2,0,.38-.04.55-.13.17-.08.32-.18.45-.3l.27.42c-.18.16-.39.29-.61.38-.23.09-.46.14-.71.14Z"/>
      <path class="cls-3" d="M84.23,14.36c-.37,0-.7-.08-.99-.26-.29-.17-.53-.42-.7-.74-.18-.32-.26-.71-.26-1.15,0-.34.05-.64.15-.91.1-.26.24-.49.41-.68s.37-.34.59-.43c.22-.1.45-.15.69-.15.34,0,.63.08.87.23.24.16.43.38.56.67.13.29.19.63.19,1.03,0,.07,0,.13,0,.19s-.01.12-.02.18h-2.81c.01.3.08.57.2.8.12.23.29.4.49.53.21.13.45.19.72.19.2,0,.39-.03.56-.09.17-.06.33-.14.49-.25l.22.43c-.17.11-.37.21-.58.29s-.47.12-.75.12ZM82.88,11.88h2.3c0-.44-.09-.77-.28-1-.19-.23-.45-.34-.78-.34-.2,0-.39.05-.57.16-.18.11-.32.26-.44.46s-.19.44-.22.72Z"/>
      <path class="cls-3" d="M86.82,14.26v-5.58h.63v5.58h-.63Z"/>
      <path class="cls-3" d="M88.95,14.26v-4.11h.51l.06.6h.02c.2-.2.41-.37.63-.5.22-.14.47-.21.76-.21.43,0,.75.14.95.41.2.27.3.67.3,1.2v2.61h-.62v-2.54c0-.4-.06-.69-.19-.87-.13-.18-.33-.27-.62-.27-.22,0-.42.06-.59.17-.17.11-.37.28-.58.5v3.02h-.62Z"/>
      <path class="cls-3" d="M93.09,10.65v-.46l.59-.04h1.49v.5h-2.08ZM93.66,14.26v-4.84c0-.27.04-.51.13-.71.09-.2.21-.35.38-.46.17-.11.38-.16.64-.16.12,0,.24.01.35.04s.22.06.32.1l-.14.48c-.15-.08-.31-.11-.47-.11-.2,0-.35.07-.45.21s-.15.35-.15.62v4.82h-.62Z"/>
      <path class="cls-3" d="M97.45,14.36c-.33,0-.65-.08-.93-.26-.29-.17-.52-.42-.69-.74-.18-.32-.26-.71-.26-1.16s.09-.85.26-1.18c.17-.32.41-.57.69-.74.29-.17.6-.26.93-.26.25,0,.49.05.72.15.23.1.43.24.61.42s.32.41.42.68c.1.27.15.58.15.92,0,.45-.09.84-.26,1.16-.17.32-.41.57-.69.74-.29.17-.6.26-.93.26ZM97.45,13.84c.25,0,.47-.07.66-.21.19-.14.34-.33.44-.57s.16-.53.16-.85-.05-.62-.16-.86c-.11-.25-.25-.44-.44-.58-.19-.14-.41-.21-.66-.21s-.46.07-.65.21-.34.33-.44.58c-.1.25-.16.53-.16.86s.05.61.16.85c.1.24.25.43.44.57.19.14.41.21.65.21Z"/>
      <path class="cls-3" d="M100.45,14.26v-4.11h.51l.06.75h.02c.14-.26.31-.47.51-.62.2-.16.42-.24.65-.24.09,0,.17,0,.24.02.07.01.13.04.2.07l-.12.54c-.07-.02-.13-.04-.19-.05-.05-.01-.12-.02-.21-.02-.17,0-.36.07-.55.22-.19.15-.36.4-.5.75v2.68h-.62Z"/>
      <path class="cls-3" d="M103.34,14.26v-4.11h.51l.06.61h.02c.18-.2.38-.37.59-.51.22-.14.45-.21.69-.21.32,0,.57.07.74.21.18.14.3.34.38.59.22-.24.45-.43.67-.58s.46-.22.71-.22c.42,0,.73.14.93.41.21.27.31.67.31,1.2v2.61h-.61v-2.54c0-.4-.07-.69-.2-.87-.13-.18-.33-.27-.61-.27-.17,0-.34.06-.51.17-.18.11-.37.28-.57.5v3.02h-.62v-2.54c0-.4-.06-.69-.19-.87-.13-.18-.33-.27-.61-.27-.16,0-.33.06-.52.17-.18.11-.37.28-.56.5v3.02h-.62Z"/>
      <path class="cls-3" d="M111.29,14.36c-.22,0-.43-.04-.61-.13-.18-.09-.32-.22-.43-.39-.11-.17-.16-.38-.16-.63,0-.45.2-.8.61-1.04s1.06-.41,1.94-.5c0-.19-.02-.37-.06-.53-.05-.17-.14-.3-.26-.41-.13-.11-.31-.16-.55-.16s-.48.05-.69.15c-.21.1-.4.2-.56.31l-.24-.44c.12-.08.26-.16.42-.24.16-.08.34-.15.54-.21.2-.06.41-.09.63-.09.33,0,.6.07.8.21.21.14.36.34.45.59.09.25.14.54.14.87v2.55h-.5l-.06-.5h-.02c-.2.17-.41.31-.65.43s-.48.18-.74.18ZM111.46,13.86c.21,0,.41-.05.59-.15.19-.1.39-.24.59-.42v-1.2c-.48.06-.87.13-1.15.23-.29.1-.49.22-.61.36s-.18.31-.18.5c0,.25.07.43.22.53.15.11.33.16.54.16Z"/>
      <path class="cls-3" d="M115.73,14.36c-.29,0-.51-.06-.68-.17-.17-.11-.29-.27-.35-.47-.07-.2-.1-.44-.1-.7v-2.37h-.62v-.46l.65-.04.08-1.17h.52v1.17h1.14v.5h-1.14v2.39c0,.25.05.45.14.59.09.14.26.21.51.21.08,0,.16-.01.25-.03s.17-.05.23-.08l.13.47c-.12.04-.24.08-.37.11-.13.03-.25.05-.37.05Z"/>
      <path class="cls-3" d="M117.61,9.26c-.13,0-.23-.04-.31-.12s-.12-.18-.12-.32.04-.23.12-.3.18-.11.31-.11.22.04.3.11.12.18.12.3-.04.24-.12.32-.18.12-.3.12ZM117.29,14.26v-4.11h.62v4.11h-.62Z"/>
      <path class="cls-3" d="M120.92,14.36c-.33,0-.65-.08-.93-.26-.29-.17-.52-.42-.69-.74-.18-.32-.26-.71-.26-1.16s.09-.85.26-1.18c.17-.32.41-.57.69-.74.29-.17.6-.26.93-.26.25,0,.49.05.72.15.23.1.43.24.61.42s.32.41.42.68c.1.27.15.58.15.92,0,.45-.09.84-.26,1.16-.17.32-.41.57-.69.74-.29.17-.6.26-.93.26ZM120.92,13.84c.25,0,.47-.07.66-.21.19-.14.34-.33.44-.57s.16-.53.16-.85-.05-.62-.16-.86c-.11-.25-.25-.44-.44-.58-.19-.14-.41-.21-.66-.21s-.46.07-.65.21-.34.33-.44.58c-.1.25-.16.53-.16.86s.05.61.16.85c.1.24.25.43.44.57.19.14.41.21.65.21Z"/>
      <path class="cls-3" d="M123.93,14.26v-4.11h.51l.06.6h.02c.2-.2.41-.37.63-.5.22-.14.47-.21.76-.21.43,0,.75.14.95.41.2.27.3.67.3,1.2v2.61h-.62v-2.54c0-.4-.06-.69-.19-.87-.13-.18-.33-.27-.62-.27-.22,0-.42.06-.59.17-.17.11-.37.28-.58.5v3.02h-.62Z"/>
      <path class="cls-3" d="M61.24,21.88v-5.58h.78l1.09,3.06c.07.19.14.38.21.58s.14.4.2.6h.04c.07-.2.13-.4.2-.6.07-.2.13-.4.19-.58l1.09-3.06h.78v5.58h-.59v-3.22c0-.16,0-.34.01-.52,0-.19.02-.37.03-.56s.02-.37.03-.53h-.03l-.44,1.27-1.09,3h-.44l-1.09-3-.44-1.27h-.03c.02.16.03.34.04.53,0,.19.02.38.03.56,0,.19.01.36.01.52v3.22h-.57Z"/>
      <path class="cls-3" d="M68.24,21.98c-.22,0-.43-.04-.61-.13-.18-.09-.32-.22-.43-.39-.11-.17-.16-.38-.16-.63,0-.45.2-.8.61-1.04s1.06-.41,1.94-.5c0-.19-.02-.37-.06-.53-.05-.17-.14-.3-.26-.41-.13-.11-.31-.16-.55-.16s-.48.05-.69.15c-.21.1-.4.2-.56.31l-.24-.44c.12-.08.26-.16.42-.24.16-.08.34-.15.54-.21.2-.06.41-.09.63-.09.33,0,.6.07.8.21.21.14.36.34.45.59.09.25.14.54.14.87v2.55h-.5l-.06-.5h-.02c-.2.17-.41.31-.65.43s-.48.18-.74.18ZM68.41,21.48c.21,0,.41-.05.59-.15.19-.1.39-.24.59-.42v-1.2c-.48.06-.87.13-1.15.23-.29.1-.49.22-.61.36s-.18.31-.18.5c0,.25.07.43.22.53.15.11.33.16.54.16Z"/>
      <path class="cls-3" d="M71.56,21.88v-4.11h.51l.06.6h.02c.2-.2.41-.37.63-.5.22-.14.47-.21.76-.21.43,0,.75.14.95.41.2.27.3.67.3,1.2v2.61h-.62v-2.54c0-.4-.06-.69-.19-.87-.13-.18-.33-.27-.62-.27-.22,0-.42.06-.59.17-.17.11-.37.28-.58.5v3.02h-.62Z"/>
      <path class="cls-3" d="M77.1,21.98c-.22,0-.43-.04-.61-.13-.18-.09-.32-.22-.43-.39-.11-.17-.16-.38-.16-.63,0-.45.2-.8.61-1.04s1.06-.41,1.94-.5c0-.19-.02-.37-.06-.53-.05-.17-.14-.3-.26-.41-.13-.11-.31-.16-.55-.16s-.48.05-.69.15c-.21.1-.4.2-.56.31l-.24-.44c.12-.08.26-.16.42-.24.16-.08.34-.15.54-.21.2-.06.41-.09.63-.09.33,0,.6.07.8.21.21.14.36.34.45.59.09.25.14.54.14.87v2.55h-.5l-.06-.5h-.02c-.2.17-.41.31-.65.43s-.48.18-.74.18ZM77.27,21.48c.21,0,.41-.05.59-.15.19-.1.39-.24.59-.42v-1.2c-.48.06-.87.13-1.15.23-.29.1-.49.22-.61.36s-.18.31-.18.5c0,.25.07.43.22.53.15.11.33.16.54.16Z"/>
      <path class="cls-3" d="M81.8,23.79c-.34,0-.63-.04-.89-.13-.26-.09-.46-.21-.6-.38s-.21-.37-.21-.6c0-.18.05-.35.16-.52.11-.17.26-.31.45-.43v-.03c-.1-.07-.19-.15-.26-.27-.07-.11-.11-.25-.11-.41,0-.17.05-.32.15-.45.1-.13.2-.23.31-.3v-.03c-.14-.11-.26-.26-.37-.46-.11-.19-.17-.41-.17-.66,0-.3.07-.56.21-.78.14-.22.32-.39.56-.51.23-.12.48-.18.75-.18.12,0,.23.01.33.03.1.02.18.05.25.08h1.42v.48h-.87c.11.1.19.23.26.38.07.15.1.33.1.51,0,.28-.07.53-.2.75-.13.22-.31.38-.54.5-.23.12-.48.18-.76.18-.1,0-.2-.01-.31-.04-.11-.03-.22-.06-.31-.11-.08.07-.14.14-.2.22-.06.08-.08.18-.08.3,0,.13.05.24.16.33.1.09.3.13.58.13h.83c.47,0,.82.08,1.06.23.24.16.35.4.35.74,0,.25-.08.48-.25.7-.17.22-.41.39-.71.52-.31.13-.67.19-1.08.19ZM81.88,23.36c.27,0,.51-.04.72-.13.2-.09.36-.2.47-.33.11-.13.17-.28.17-.42,0-.2-.07-.35-.22-.43-.15-.08-.36-.12-.64-.12h-.75c-.07,0-.15,0-.24-.01-.09,0-.19-.02-.29-.05-.16.11-.27.22-.34.35-.07.13-.1.26-.1.38,0,.22.11.4.32.54s.52.21.9.21ZM81.77,20.14c.17,0,.33-.04.46-.13.14-.08.25-.2.33-.35.09-.15.13-.33.13-.53,0-.21-.04-.4-.13-.54s-.2-.26-.33-.34-.3-.12-.47-.12-.32.04-.46.12-.25.19-.33.34c-.08.15-.13.33-.13.54s.04.38.13.53c.08.15.2.27.33.35.14.08.29.13.45.13Z"/>
      <path class="cls-3" d="M86.19,21.98c-.37,0-.7-.08-.99-.26-.29-.17-.53-.42-.7-.74-.18-.32-.26-.71-.26-1.15,0-.34.05-.64.15-.91.1-.26.24-.49.41-.68s.37-.34.59-.43c.22-.1.45-.15.69-.15.34,0,.63.08.87.23.24.16.43.38.56.67.13.29.19.63.19,1.03,0,.07,0,.13,0,.19s-.01.12-.02.18h-2.81c.01.3.08.57.2.8.12.23.29.4.49.53.21.13.45.19.72.19.2,0,.39-.03.56-.09.17-.06.33-.14.49-.25l.22.43c-.17.11-.37.21-.58.29s-.47.12-.75.12ZM84.84,19.5h2.3c0-.44-.09-.77-.28-1-.19-.23-.45-.34-.78-.34-.2,0-.39.05-.57.16-.18.11-.32.26-.44.46s-.19.44-.22.72Z"/>
      <path class="cls-3" d="M88.72,21.88v-4.11h.51l.06.61h.02c.18-.2.38-.37.59-.51.22-.14.45-.21.69-.21.32,0,.57.07.74.21.18.14.3.34.38.59.22-.24.45-.43.67-.58s.46-.22.71-.22c.42,0,.73.14.93.41.21.27.31.67.31,1.2v2.61h-.61v-2.54c0-.4-.07-.69-.2-.87-.13-.18-.33-.27-.61-.27-.17,0-.34.06-.51.17-.18.11-.37.28-.57.5v3.02h-.62v-2.54c0-.4-.06-.69-.19-.87-.13-.18-.33-.27-.61-.27-.16,0-.33.06-.52.17-.18.11-.37.28-.56.5v3.02h-.62Z"/>
      <path class="cls-3" d="M97.38,21.98c-.37,0-.7-.08-.99-.26-.29-.17-.53-.42-.7-.74-.18-.32-.26-.71-.26-1.15,0-.34.05-.64.15-.91.1-.26.24-.49.41-.68s.37-.34.59-.43c.22-.1.45-.15.69-.15.34,0,.63.08.87.23.24.16.43.38.56.67.13.29.19.63.19,1.03,0,.07,0,.13,0,.19s-.01.12-.02.18h-2.81c.01.3.08.57.2.8.12.23.29.4.49.53.21.13.45.19.72.19.2,0,.39-.03.56-.09.17-.06.33-.14.49-.25l.22.43c-.17.11-.37.21-.58.29s-.47.12-.75.12ZM96.03,19.5h2.3c0-.44-.09-.77-.28-1-.19-.23-.45-.34-.78-.34-.2,0-.39.05-.57.16-.18.11-.32.26-.44.46s-.19.44-.22.72Z"/>
      <path class="cls-3" d="M99.91,21.88v-4.11h.51l.06.6h.02c.2-.2.41-.37.63-.5.22-.14.47-.21.76-.21.43,0,.75.14.95.41.2.27.3.67.3,1.2v2.61h-.62v-2.54c0-.4-.06-.69-.19-.87-.13-.18-.33-.27-.62-.27-.22,0-.42.06-.59.17-.17.11-.37.28-.58.5v3.02h-.62Z"/>
      <path class="cls-3" d="M105.78,21.98c-.29,0-.51-.06-.68-.17-.17-.11-.29-.27-.35-.47-.07-.2-.1-.44-.1-.7v-2.37h-.62v-.46l.65-.04.08-1.17h.52v1.17h1.14v.5h-1.14v2.39c0,.25.05.45.14.59.09.14.26.21.51.21.08,0,.16-.01.25-.03s.17-.05.23-.08l.13.47c-.12.04-.24.08-.37.11-.13.03-.25.05-.37.05Z"/>
      <path class="cls-3" d="M110.63,21.98c-.4,0-.76-.08-1.09-.22-.33-.15-.61-.35-.84-.61l.37-.43c.2.21.44.38.71.51s.55.19.85.19c.38,0,.68-.09.9-.26.22-.17.33-.4.33-.69,0-.21-.04-.37-.13-.5-.09-.12-.2-.22-.34-.3-.14-.08-.3-.16-.48-.24l-.81-.36c-.17-.07-.35-.17-.52-.28-.17-.12-.32-.27-.44-.45-.12-.19-.18-.41-.18-.68,0-.28.08-.54.23-.75.15-.22.35-.39.61-.51.26-.12.55-.19.88-.19s.64.06.92.19.51.29.7.5l-.34.4c-.16-.16-.35-.29-.56-.39-.21-.1-.45-.14-.72-.14-.33,0-.59.08-.79.23s-.3.36-.3.62c0,.19.05.34.14.46.1.12.22.22.36.29.14.07.29.14.42.21l.81.34c.21.09.41.2.58.33.18.13.31.28.42.47.1.19.15.42.15.7s-.08.55-.22.79c-.15.24-.37.43-.64.56-.28.14-.61.21-1,.21Z"/>
      <path class="cls-3" d="M113.56,23.68c-.09,0-.18,0-.25-.02-.08-.01-.15-.04-.21-.06l.12-.5s.09.03.15.05c.06.01.12.02.17.02.24,0,.43-.09.59-.27s.28-.4.37-.67l.09-.32-1.66-4.14h.65l.88,2.35c.07.18.13.38.2.58.07.2.14.4.21.58h.04c.06-.19.11-.38.18-.58.06-.2.12-.39.17-.58l.77-2.35h.61l-1.57,4.5c-.09.26-.2.5-.33.71-.13.21-.3.38-.48.51-.19.13-.42.19-.69.19Z"/>
      <path class="cls-3" d="M118.51,21.98c-.29,0-.58-.05-.84-.16-.27-.11-.49-.24-.68-.4l.31-.42c.18.14.36.26.56.35.2.09.42.14.68.14.29,0,.5-.07.64-.2.14-.13.21-.3.21-.48,0-.15-.05-.27-.14-.37s-.22-.18-.37-.25c-.15-.07-.3-.13-.45-.19-.19-.08-.38-.16-.57-.25s-.34-.21-.46-.36c-.12-.15-.19-.34-.19-.58,0-.21.06-.41.17-.58.11-.18.27-.31.48-.42.21-.1.46-.15.75-.15.24,0,.47.04.69.13s.4.2.56.32l-.3.4c-.14-.11-.28-.19-.43-.26-.15-.07-.32-.1-.51-.1-.27,0-.48.06-.61.19s-.19.27-.19.44c0,.14.04.25.13.34.08.09.2.16.33.23s.29.12.44.18c.15.06.3.12.45.19.15.06.29.14.41.23.12.09.22.2.3.34.07.13.11.3.11.5,0,.22-.06.42-.17.6-.11.18-.28.33-.5.44-.22.11-.48.16-.8.16Z"/>
      <path class="cls-3" d="M122.04,21.98c-.29,0-.51-.06-.68-.17-.17-.11-.29-.27-.35-.47-.07-.2-.1-.44-.1-.7v-2.37h-.62v-.46l.65-.04.08-1.17h.52v1.17h1.14v.5h-1.14v2.39c0,.25.05.45.14.59.09.14.26.21.51.21.08,0,.16-.01.25-.03s.17-.05.23-.08l.13.47c-.12.04-.24.08-.37.11-.13.03-.25.05-.37.05Z"/>
      <path class="cls-3" d="M125.12,21.98c-.37,0-.7-.08-.99-.26-.29-.17-.53-.42-.7-.74-.18-.32-.26-.71-.26-1.15,0-.34.05-.64.15-.91.1-.26.24-.49.41-.68s.37-.34.59-.43c.22-.1.45-.15.69-.15.34,0,.63.08.87.23.24.16.43.38.56.67.13.29.19.63.19,1.03,0,.07,0,.13,0,.19s-.01.12-.02.18h-2.81c.01.3.08.57.2.8.12.23.29.4.49.53.21.13.45.19.72.19.2,0,.39-.03.56-.09.17-.06.33-.14.49-.25l.22.43c-.17.11-.37.21-.58.29s-.47.12-.75.12ZM123.77,19.5h2.3c0-.44-.09-.77-.28-1-.19-.23-.45-.34-.78-.34-.2,0-.39.05-.57.16-.18.11-.32.26-.44.46s-.19.44-.22.72Z"/>
      <path class="cls-3" d="M127.66,21.88v-4.11h.51l.06.61h.02c.18-.2.38-.37.59-.51.22-.14.45-.21.69-.21.32,0,.57.07.74.21.18.14.3.34.38.59.22-.24.45-.43.67-.58s.46-.22.71-.22c.42,0,.73.14.93.41.21.27.31.67.31,1.2v2.61h-.61v-2.54c0-.4-.07-.69-.2-.87-.13-.18-.33-.27-.61-.27-.17,0-.34.06-.51.17-.18.11-.37.28-.57.5v3.02h-.62v-2.54c0-.4-.06-.69-.19-.87-.13-.18-.33-.27-.61-.27-.16,0-.33.06-.52.17-.18.11-.37.28-.56.5v3.02h-.62Z"/>
    </g>
  </g>
</svg>